<svg xmlns="http://www.w3.org/2000/svg" xmlns:xlink="http://www.w3.org/1999/xlink" version="1.1" id="layer" x="0px" y="0px" style="enable-background:new 0 0 652 652;" xml:space="preserve" viewBox="21.4 254.3 600 133.4">
<style type="text/css">
	.st0{fill:#FFFFFF;}
	.st1{fill:#EB003C;}
</style>
<title>HATCH 2020 LOGO</title>
<path class="st0" d="M155.7,321c0,36.3-29.9,65.9-66.7,65.9S22.2,357.3,22.2,321s29.9-65.9,66.7-65.9S155.7,284.7,155.7,321"/>
<path class="st1" d="M88.9,369.6c-27,0-49.1-21.9-49.1-48.6s22.2-48.6,49.1-48.6S138,294.3,138,321S115.9,369.6,88.9,369.6   M189.5,345.3v-10.7c2.1,1.3,3.5,2.4,4.8,2.9s2.7,0.8,4,0.8c4.5,0,7.2-2.4,7.2-7.2v-36h12.3v36.8c0,5.9-1.6,9.9-4.8,12.3  s-6.9,3.7-11.5,3.7C197.3,348.2,193.6,347.2,189.5,345.3 M225,321c0-18.7,8.5-27,23-27c15.7,0,23.2,8.8,23.2,27c0,19.5-8.8,27-23,27  C233.1,348.2,225,339.7,225,321 M258.4,321c0-12.3-3.2-17.3-10.4-17.3c-6.7,0-10.1,5.3-10.1,17.3s3.7,17.3,10.7,17.3  C254.9,338.3,258.4,333.3,258.4,321 M278.4,295.1h12.3v21.1H307v-21.1h12.3v52H307v-20.8h-16.3v20.6h-12.3V295.1z M370.2,347.2  l-16.3-52h-12.8l-16.8,52h11.2l2.9-10.1H355l2.9,10.1H370.2z M352.4,327.7h-11.2l5.6-19L352.4,327.7z M466.1,295.1v52h-10.1  l-18.4-31.8v31.8h-12.3v-52h11.2l17.1,31v-31H466.1z M415.9,295.1v52h-10.1l-18.4-31.8v31.8H375v-52h11.2l17.1,31v-31H415.9z   M475.7,295.1h12.3v52h-12.3V295.1z M507.7,304.2h-13.9v-9.1h40v9.1h-14.1v43h-12.3v-43H507.7z M609.4,326.3  c3.2-1.1,5.9-2.7,7.7-5.6c1.9-2.9,2.7-5.9,2.7-9.3c0-5.3-1.6-9.6-5.1-12.3c-3.2-2.7-8-4.3-14.1-4.3h-21.1v52h12v-19.2h5.3l9.9,19.2  h14.7L609.4,326.3z M600.3,318.6H592v-14.4h8.8c1.9,0,3.7,0.5,5.1,1.6c1.1,1.1,1.6,3.2,1.6,5.3C607.8,315.9,605.1,318.6,600.3,318.6   M540,347.2h31v-9.1h-18.7v-12.3H568v-9.3h-15.7v-12.3H571v-9.1h-31V347.2z"/>
<path class="st0" d="M88.9,321l-40.3-15.5L63.8,321l-15.2,15.5L88.9,321z M88.9,321l40.3,15.5L114,321l15.2-15.5L88.9,321z   M88.9,321l-15.7,40l15.7-14.9l15.7,14.9L88.9,321z M88.9,321l15.7-40l-15.7,14.9L73.2,281L88.9,321z"/>
<path d="M32.3,319.9h-2.7v2.1h2.9v-2.1H32.3z M145.5,322.1h2.9v-2.1h-2.9V322.1z M143.4,352.2l-1.3-0.8l-2.4,3.7l-2.1-1.3l2.1-3.2  l-1.3-0.8l-2.4,3.2l-2.1-1.3l2.4-3.7l-1.3-0.8l-3.7,5.6l8.3,5.3L143.4,352.2z M133.5,364.8l-2.9-2.7l2.7-2.9l-1.1-1.1l-2.7,2.7  l-1.9-1.9l3.2-3.2l-1.1-1.1l-4.5,4.5l7.2,6.7L133.5,364.8z M129.5,368.5l-1.1-1.3l-3.7,2.7l-5.1-6.4l-1.6,1.3l5.9,7.7L129.5,368.5z   M119.6,375.2l-4.8-8.5l-1.9,1.1l4.8,8.5L119.6,375.2z M107.3,380.5l-1.3-3.7l4-1.3l1.3,3.7l1.9-0.5l-3.2-9.3l-1.9,0.5l1.3,3.7  l-4,1.3l-1.3-3.7l-1.9,0.5l3.2,9.3L107.3,380.5z M99.3,377.9l-0.3-1.3l-4.5,0.5l0.3,1.3L99.3,377.9z M92.1,383.5v-1.6h-4.5v-8.3  h-2.1v9.9L92.1,383.5z M82,382.9l0.3-1.6l-4.5-0.8l1.3-8l-1.9-0.3l-1.6,9.6L82,382.9z M69.4,376v-4.3l-2.7,3.2L69.4,376z   M71.3,370.4v10.4l-1.9-0.8v-2.4l-3.7-1.3l-1.6,1.9l-1.9-0.8l6.9-7.7L71.3,370.4z M55.8,374.1l2.1-3.5l3.5,1.9l0.8-1.3l-3.5-1.9  l1.3-2.1l4,2.4l0.8-1.3l-5.6-3.2l-5.1,8.3L55.8,374.1z M54.5,361l-4.5,4.8l1.1-8l-1.3-1.3l-6.7,7.2l1.3,1.3l4.5-4.8l-0.8,8l1.3,1.1  l6.7-7.2L54.5,361z M36.6,356.2c-0.8-1.1-1.1-2.1-1.1-3.2c0.3-1.1,0.8-1.9,1.9-2.7l5.1-3.5l1.1,1.6l-5.1,3.5  c-0.5,0.8-0.8,1.1-1.1,1.6c-0.3,0.5,0,1.1,0.5,1.6c0.3,0.5,0.8,0.8,1.3,1.1c0.5,0,1.1,0,1.9-0.5l5.1-3.5l1.1,1.6l-5.1,3.5  c-0.8,0.5-1.6,0.8-2.1,0.8c-0.8,0-1.3,0-1.9-0.5C37.7,357.6,37.1,357,36.6,356.2 M139.1,293.8l1.3-0.5l2.1,4l-1.3,0.5L139.1,293.8z   M134,284.7l1.3,1.6c0.3,0.5,0.8,0.8,1.1,0.8s0.8,0,1.3-0.3c0.3-0.3,0.5-0.5,0.8-1.1c0-0.3,0-0.8-0.3-1.1l-1.3-1.9L134,284.7z   M140.4,286.6c0,0.8-0.5,1.3-1.3,2.1c-0.3,0.3-0.8,0.5-1.3,0.5c-0.5,0-0.8,0-1.3,0c-0.3,0-0.5-0.3-1.1-0.5l-1.6,4.5l-1.6-1.9  l1.6-3.7l-1.1-1.3l-2.9,2.1l-1.1-2.1l8-5.9l2.7,3.7C140.2,285,140.4,285.8,140.4,286.6 M120.7,279.1l6.4-7.5l5.1,4.3l-1.1,1.3  l-3.5-2.9l-1.6,1.9l2.9,2.7l-1.1,1.3l-2.9-2.7l-1.6,1.9l3.5,2.9l-1.1,1.3L120.7,279.1z M113.5,274.6l4-7.2l-2.7-1.3l0.8-1.3l6.9,3.7  l-0.8,1.3l-2.7-1.3l-4,7.2L113.5,274.6z M105.5,271.4l3.2-9.3l1.9,0.5l-3.2,9.3L105.5,271.4z M99.3,266.3l1.1-6.4l1.9,0.3l-1.3,9.6  l-1.6-0.3l-4-7.2l-1.1,6.7l-1.9-0.3l1.3-9.6l1.9,0.3L99.3,266.3z M85.2,265.5l-0.8-6.4l1.9-0.3l1.1,9.6l-1.6,0.3l-5.6-5.9l0.8,6.7  l-1.9,0.3l-1.1-9.6l1.9-0.5L85.2,265.5z M71,267.6l-2.7-3.2v4.3L71,267.6z M72.1,269l-3.7,1.3v2.4l-1.6,0.5l0.3-10.4l2.1-0.8l6.7,8  l-1.9,0.8L72.1,269z M56.9,279.1l-5.3-8.3l1.6-1.1l2.1,3.5l3.5-2.1l-2.1-3.5l1.6-1.1l5.3,8.3l-1.6,1.1l-2.1-3.5l-3.5,2.1l2.1,3.5  L56.9,279.1z M49.7,283.9c0.3-0.5,0.5-0.8,0.8-1.3c0-0.5,0-0.8-0.3-1.3c-0.3-0.5-0.5-1.1-1.3-1.6c-0.5-0.5-1.1-1.1-1.6-1.1  c-0.5-0.3-1.1-0.3-1.3-0.3c-0.5,0.3-0.8,0.5-1.3,0.8c-0.3,0.5-0.5,1.1-0.8,1.3c0,0.5,0,0.8,0.3,1.3c0.3,0.5,0.5,1.1,1.3,1.6  c0.5,0.5,1.1,1.1,1.6,1.1c0.5,0.3,1.1,0.3,1.3,0C48.9,284.4,49.2,284.2,49.7,283.9 M50.8,285c-0.8,0.8-1.3,1.1-2.1,1.3  s-1.6,0.3-2.4,0c-0.8,0-1.6-0.5-2.4-1.3c-1.1-1.3-1.9-2.4-1.9-3.5c0-1.1,0.5-2.4,1.6-3.5c0.5-0.8,1.3-1.1,1.9-1.3  c0.8-0.3,1.6-0.3,2.4,0c0.8,0.3,1.6,0.8,2.4,1.6c1.3,1.1,1.9,2.4,1.9,3.5C52.4,282.8,51.8,283.9,50.8,285 M43.6,294.3  c-0.3,0.3-0.5,0.8-0.8,0.8c-0.3,0.3-0.5,0.5-0.8,0.8l-1.6-1.1c0.3-0.3,0.5-0.3,0.8-0.5c0.5,0,0.5,0,0.8-0.3c0.3-0.5,0.3-0.8,0.3-1.1  s-0.3-0.8-0.8-1.1l-5.9-3.5l1.1-1.6l5.9,3.5c0.5,0.3,0.8,0.5,1.1,1.1c0.3,0.3,0.5,0.8,0.5,1.1s0,0.8,0,1.1  C43.8,293.8,43.8,294,43.6,294.3 M88.9,271.6C61.4,271.6,39,293.8,39,321s22.4,49.4,49.9,49.4s49.9-22.2,49.9-49.4  S116.4,271.6,88.9,271.6 M88.9,273.2c26.7,0,48.3,21.4,48.3,47.8s-21.6,47.8-48.3,47.8S40.6,347.4,40.6,321S62.2,273.2,88.9,273.2   M88.9,254.3c-37.4,0-67.5,29.9-67.5,66.7s30.2,66.7,67.5,66.7s67.5-29.9,67.5-66.7S126.3,254.3,88.9,254.3 M88.9,255.9  c36.3,0,65.9,29.4,65.9,65.1s-29.6,65.1-65.9,65.1S23,356.8,23,321S52.6,255.9,88.9,255.9"/>
</svg>