<?xml version="1.0" encoding="utf-8"?>
<!-- Generator: Adobe Illustrator 27.8.0, SVG Export Plug-In . SVG Version: 6.00 Build 0)  -->
<svg version="1.1" id="Layer_1" xmlns="http://www.w3.org/2000/svg" xmlns:xlink="http://www.w3.org/1999/xlink" x="0px" y="0px"
	 viewBox="0 0 768 768" style="enable-background:new 0 0 768 768;" xml:space="preserve">
<style type="text/css">
	.st0{fill:#FFFFFF;fill-opacity:0;stroke:#000000;stroke-width:8.7351;stroke-miterlimit:70.0556;}
	.st1{fill:#FFFFFF;fill-opacity:0;stroke:#000000;stroke-width:8;stroke-miterlimit:10;}
	.st2{fill:none;stroke:#000000;stroke-width:8.6913;stroke-miterlimit:70.0556;}
</style>
<g id="Layer_2_00000039823775185853641960000016215529434508046987_">
</g>
<g id="svg10429" xmlns:svg="http://www.w3.org/2000/svg">
	<path id="path7436" class="st0" d="M741.9,384c0-197.7-160.3-357.9-357.9-357.9C186.3,26.1,26.1,186.3,26.1,384
		S186.3,741.9,384,741.9C581.6,741.9,741.9,581.7,741.9,384z"/>
	<path id="path7438" d="M386.5,43.2l-8.2,0.5l2.2,44.3l-38.3-42.1l-9.3,0.5l2.7,55.8l8.2-0.5l-2.2-44.3l38.3,42.1l9.9-0.5
		L386.5,43.2z M424.3,44.8l-10.9,54.7l8.2,1.6l8.2-43.8h0.5l26.3,50.9l9.9,1.6l10.4-54.7l-7.7-1.6l-8.8,43.8l-0.5-0.5l-26.3-50.4
		L424.3,44.8z M277.6,60.7l-8.8,3.3l-6,60.8l8.8-2.7l1.1-17.5l26.3-8.8l12,13.1l8.8-3.3L277.6,60.7z M511.8,67.8L491,119.3l7.7,3.3
		l20.8-52L511.8,67.8z M275.4,70l18.1,19.7l-19.7,7.1L275.4,70z M541.4,79.8l-3.8,6l17.5,11.5l-26.3,40.5l7.1,4.9l26.3-41l17.5,11.5
		l3.8-6L541.4,79.8z M213,88.6l-6.6,4.4l12.6,18.6l-31.7,21.3l-12.6-18.6l-7.1,4.4l31.2,46.5l7.1-4.4L191.1,139l31.7-21.3l14.8,21.9
		l6.6-4.9L213,88.6z M603.8,122.5l-38.3,41l33.4,31.2l4.9-5.5l-27.4-25.7l12.6-13.1l25.7,24.1l4.9-4.9l-25.7-24.1l10.9-12l26.8,24.6
		l4.9-4.9L603.8,122.5z M145.1,147.7c-7.4,0.5-15.5,4.3-22.4,13.1c-13.8,17.7-6.9,33.9,4.4,42.7c11.3,8.8,28.3,11.1,42.1-6.6
		s7.4-33.9-3.8-42.7C159.7,149.9,152.6,147.2,145.1,147.7z M147.3,155.4c4.2,0.2,8.2,2.1,12.6,5.5c11.7,9.1,11.7,21.7,3.8,31.7
		s-20.1,13.5-31.7,4.4s-11.1-21.7-3.3-31.7C133.6,158.9,140.3,155,147.3,155.4z M658.5,180.6l-47.1,30.6l4.4,6.6l20.3-12.6
		l11.5,18.1c3.7,5.8,3.2,10.6-4.9,16.4c-5.5,4-7.6,5.1-8.2,7.1l4.9,7.1c0.8-2.8,2.4-4.4,10.9-10.4c5.4-3.8,7.6-8.6,5.5-13.1h0.5
		c4.9,4.1,10.7,4.2,16.4,0.5c6-3.9,10.4-11.4,4.4-20.8L658.5,180.6z M656.9,191.5l12.6,19.7c3.6,5.6,2.3,10.3-2.2,13.1
		c-3.3,2.1-8.7,3-13.1-3.8l-12-19.2L656.9,191.5z M92,207.4l-4.4,7.1l33.4,20.8c6,3.8,7.4,9.1,3.8,14.8c-3.7,5.9-9,7.3-15.3,3.3
		l-2.2-1.1l-3.8,6.6c6.2,3.9,17.4,10.2,27.4-5.5c5.6-8.9,5.7-17.9-6.6-25.7L92,207.4z M674.9,254.4l-8.2,2.7l9.3,26.3l7.7-2.7
		L674.9,254.4z M63,375.9v13.7h17.5v-13.7H63z M691.3,375.9v13.7h17.5v-13.7H691.3z M652.5,482.1l-18.6,41l50.4,23l19.2-41.6
		l-6.6-2.7l-15.3,33.9l-16.4-7.7l14.8-32.3l-6.6-2.7l-14.8,32.3l-14.8-7.1l15.3-33.4L652.5,482.1z M116.1,483.2l-31.7,14.2
		c-13.6,6.2-16.8,17.4-9.9,32.8c7,15.5,17,19.8,30.6,13.7l31.7-14.2l-3.3-7.7l-32.8,14.8c-9.2,4.2-15.5-0.5-19.7-9.9
		c-4.2-9.3-3.2-17.2,6-21.3l32.8-14.8L116.1,483.2z M626.2,534.7l-25.2,35l45.4,32.8l4.9-6.6L631,581.1l19.2-26.8l-5.5-4.4
		L625,576.7l-13.7-9.3l20.8-28.5L626.2,534.7z M147.9,545.1l-43.2,35l5.5,6.6l34.5-27.9l-11.5,55.8l6,7.7l43.2-35.6l-5.5-6.6
		l-34.5,28.5V608l11.5-55.8L147.9,545.1z M193.8,595.4l-34.5,44.3l6.6,4.9l15.3-19.7l26.3,20.8l4.4-6l-26.3-20.3l10.4-13.1
		l27.4,21.3l4.4-5.5L193.8,595.4z M569.8,598.2l-6,5.5l36.7,42.1l31.7-27.9l-4.9-5.5l-25.2,22.4L569.8,598.2z M546.3,617.3l-6.6,4.9
		l31.2,46l6.6-4.4L546.3,617.3z M245.8,631.5L199.3,672l8.2,3.8l13.1-12l25.2,11.5l-0.5,17.5l8.8,4.4v-61.8L245.8,631.5z
		 M520.6,632.6l-7.7,3.3l9.3,20.8l-35,15.3l-8.8-20.3l-7.7,3.3l22.4,50.9l7.7-3.3l-10.4-24.1l34.5-15.3l10.9,24.1l7.7-3.3
		L520.6,632.6z M246.4,640.3l-0.5,27.4l-19.2-9.3L246.4,640.3z M286.3,650.1l-17.5,53.1l40.5,13.1l2.2-7.1l-32.3-10.4l14.8-46
		L286.3,650.1z M336.7,664.4l-4.4,55.8l42.1,3.3l0.5-7.1l-33.4-2.7l3.3-48.7L336.7,664.4z M436.8,683.5l-27.4,3.3l1.1,8.2l27.4-3.3
		L436.8,683.5z"/>
	<path id="path7488" class="st1" d="M468,169.1l-83.7,215.1l215.1-84.3l-81.5,84.8l82.1,84.8l-215.6-85.4L468,599.8l-84.3-82.6
		l-85.4,82.6l85.9-215.6L169.8,469l81.5-84.8l-82.1-84.3l215.1,84.3l-85.4-213.5l85.4,81.5L468,169.1z"/>
	<path id="path7490" class="st2" d="M648.6,384.4c0-146-118.4-264.3-264.3-264.3c-146,0-264.3,118.4-264.3,264.3
		c0,146,118.4,264.3,264.3,264.3C530.3,648.7,648.6,530.4,648.6,384.4z"/>
</g>
</svg>
