<?xml version="1.0" standalone="no"?>
<!DOCTYPE svg PUBLIC "-//W3C//DTD SVG 20010904//EN"
 "http://www.w3.org/TR/2001/REC-SVG-20010904/DTD/svg10.dtd">
<svg version="1.0" xmlns="http://www.w3.org/2000/svg"
 width="1200.000000pt" height="1200.000000pt" viewBox="0 0 1200.000000 1200.000000"
 preserveAspectRatio="xMidYMid meet">
<metadata>
Created by potrace 1.14, written by Peter Selinger 2001-2017
</metadata>
<g transform="translate(0.000000,1200.000000) scale(0.100000,-0.100000)"
fill="#000000" stroke="none">
<path d="M5700 11654 c-1551 -92 -2952 -776 -3967 -1936 -705 -808 -1164
-1796 -1327 -2858 -49 -323 -60 -479 -60 -860 0 -381 11 -537 60 -860 234
-1528 1082 -2889 2357 -3783 1288 -903 2918 -1224 4470 -881 805 178 1582 543
2232 1049 367 285 725 643 1010 1010 947 1217 1354 2791 1119 4325 -234 1528
-1083 2890 -2357 3783 -781 547 -1688 884 -2661 988 -184 19 -704 33 -876 23z
m695 -144 c1949 -142 3671 -1293 4546 -3040 324 -649 516 -1346 569 -2075 13
-180 13 -610 0 -790 -117 -1603 -913 -3059 -2200 -4026 -274 -206 -528 -362
-850 -523 -655 -327 -1331 -512 -2065 -566 -180 -13 -609 -13 -790 0 -1526
111 -2920 837 -3889 2023 -717 880 -1143 1953 -1226 3092 -13 180 -13 610 0
790 122 1669 977 3173 2353 4138 816 572 1798 916 2802 980 125 8 624 6 750
-3z"/>
<path d="M5910 11313 c0 -5 7 -134 15 -288 8 -154 15 -306 15 -338 l0 -58
-296 326 -296 325 -61 0 c-34 0 -67 -4 -74 -8 -9 -6 -8 -92 7 -387 11 -209 20
-404 20 -433 l0 -53 63 7 c34 4 64 8 65 10 2 1 -3 146 -12 321 -9 175 -16 328
-16 341 0 17 76 -60 298 -305 l298 -328 77 3 c42 2 77 7 77 10 0 4 -11 194
-25 422 -14 228 -25 421 -25 428 0 8 -20 12 -65 12 -36 0 -65 -3 -65 -7z"/>
<path d="M6626 11283 c-11 -38 -167 -835 -164 -837 5 -5 121 -26 123 -23 2 1
31 154 66 340 34 185 65 337 68 337 3 0 98 -178 209 -395 160 -309 209 -396
225 -400 37 -8 132 -23 134 -22 1 1 36 184 78 407 42 223 79 414 81 426 5 18
-2 22 -52 33 -38 9 -59 10 -63 3 -3 -6 -35 -157 -71 -336 -35 -179 -67 -326
-71 -326 -3 0 -98 176 -210 392 l-205 392 -64 12 c-36 7 -68 13 -72 13 -4 1
-9 -7 -12 -16z"/>
<path d="M4268 11027 c-31 -13 -59 -25 -62 -28 -6 -5 -96 -884 -96 -928 0 -19
2 -19 64 2 71 23 76 29 76 112 0 28 3 80 6 117 l7 67 204 68 204 68 37 -40
c19 -22 62 -68 93 -102 l58 -63 58 21 c32 12 61 25 66 28 7 7 -638 702 -651
700 -4 0 -33 -10 -64 -22z m249 -355 c36 -40 64 -74 62 -75 -2 -2 -65 -25
-139 -51 -74 -27 -141 -51 -148 -54 -16 -6 -16 -15 5 313 l6 100 74 -80 c41
-44 104 -113 140 -153z"/>
<path d="M7995 10929 c-13 -20 -315 -774 -315 -785 0 -11 107 -61 114 -53 1 2
75 185 163 406 l161 402 -59 20 c-34 11 -61 16 -64 10z"/>
<path d="M8427 10703 c-24 -39 -26 -48 -13 -55 8 -5 69 -44 136 -88 l121 -81
-23 -37 c-12 -20 -102 -160 -200 -310 -98 -151 -178 -277 -178 -282 0 -9 100
-83 105 -78 2 2 94 145 205 318 111 173 206 314 212 312 5 -1 42 -24 81 -51
40 -26 97 -64 129 -84 l56 -36 27 41 c18 28 25 46 19 55 -8 12 -617 411 -639
419 -5 2 -23 -17 -38 -43z"/>
<path d="M3273 10579 c-24 -17 -43 -32 -43 -35 0 -3 43 -69 96 -146 53 -77 92
-143 88 -148 -16 -14 -465 -311 -479 -316 -9 -4 -45 42 -106 133 -50 76 -93
140 -95 142 -1 2 -28 -11 -59 -29 -35 -20 -53 -36 -48 -43 15 -27 466 -703
473 -710 7 -8 110 49 110 61 0 4 -49 81 -110 171 -60 91 -107 168 -104 173 7
11 485 331 488 326 2 -2 54 -78 116 -170 l113 -167 46 34 c25 18 46 39 46 45
0 18 -468 709 -480 709 -5 0 -29 -13 -52 -30z"/>
<path d="M5745 10184 c-16 -2 -86 -9 -155 -15 -281 -24 -629 -98 -914 -193
-1260 -421 -2254 -1422 -2665 -2686 -80 -247 -133 -485 -172 -773 -26 -197
-37 -644 -20 -849 57 -671 248 -1268 591 -1842 270 -451 652 -873 1085 -1196
593 -444 1252 -707 2020 -807 198 -25 791 -26 975 0 544 76 924 188 1360 402
418 206 746 437 1074 755 538 523 922 1165 1121 1875 167 597 200 1237 94
1860 -200 1183 -926 2243 -1967 2872 -520 314 -1077 504 -1702 579 -126 15
-650 28 -725 18z m914 -2508 c-357 -918 -648 -1670 -647 -1671 2 -2 754 292
1672 652 918 359 1670 653 1671 651 2 -2 -280 -298 -626 -657 -346 -360 -629
-658 -629 -662 0 -4 284 -301 631 -659 347 -358 629 -653 627 -656 -2 -2 -755
294 -1672 657 -918 363 -1670 659 -1672 657 -1 -2 289 -755 646 -1673 356
-919 647 -1672 645 -1674 -2 -2 -297 284 -655 635 -358 352 -653 638 -656 637
-3 -1 -300 -288 -661 -637 -362 -350 -659 -634 -661 -632 -2 2 296 755 662
1672 365 918 663 1670 661 1672 -1 2 -749 -292 -1661 -652 -912 -361 -1661
-655 -1665 -654 -4 2 277 297 622 656 346 360 629 657 629 660 -1 4 -286 300
-634 657 -349 358 -633 651 -631 653 1 1 753 -292 1671 -651 918 -360 1670
-654 1671 -653 2 1 -288 729 -643 1617 -356 888 -655 1637 -666 1664 l-19 50
33 -32 c18 -17 318 -303 667 -636 l634 -605 651 643 c358 354 652 643 653 642
1 -2 -290 -754 -648 -1671z"/>
<path d="M9136 9767 c-160 -172 -291 -316 -292 -322 -1 -5 113 -117 254 -248
l256 -238 41 41 40 41 -130 122 c-71 67 -167 158 -213 202 l-83 81 98 102 98
102 195 -185 c107 -101 200 -184 206 -185 5 0 25 15 43 34 l34 35 -84 79 c-46
43 -137 127 -201 187 l-116 109 25 31 c14 16 52 59 85 94 l58 64 28 -25 c15
-13 109 -100 210 -193 l183 -168 35 34 c19 18 33 39 32 45 -4 15 -494 474
-505 473 -4 0 -138 -141 -297 -312z"/>
<path d="M2160 9668 c-158 -55 -311 -229 -350 -397 -46 -199 68 -411 275 -511
210 -101 443 -18 590 210 81 124 105 232 81 350 -29 136 -124 253 -262 322
-75 37 -91 41 -176 45 -78 3 -103 0 -158 -19z m255 -128 c28 -13 82 -55 121
-94 87 -87 108 -139 102 -249 -7 -131 -102 -267 -225 -325 -82 -38 -184 -38
-266 0 -119 56 -210 172 -224 287 -16 134 96 313 239 382 55 26 72 30 133 27
48 -2 86 -11 120 -28z"/>
<path d="M9935 8949 c-192 -126 -357 -234 -365 -238 -16 -10 -7 -35 33 -85
l22 -27 154 96 c84 52 155 95 157 95 5 0 96 -140 166 -254 81 -134 67 -183
-86 -297 -48 -36 -91 -72 -96 -79 -5 -8 5 -33 28 -67 l36 -55 19 27 c11 14 63
59 117 100 112 85 147 137 135 202 l-6 35 38 -23 c51 -32 140 -32 199 -2 45
24 110 91 124 129 14 37 12 120 -4 158 -12 29 -315 517 -319 515 -1 0 -159
-104 -352 -230z m428 -96 c118 -185 127 -203 127 -252 0 -31 -7 -49 -30 -75
-56 -64 -137 -71 -197 -18 -30 26 -223 323 -223 342 0 11 200 149 216 149 7 1
55 -65 107 -146z"/>
<path d="M1406 8707 c-26 -39 -31 -55 -23 -63 7 -7 122 -80 257 -164 135 -84
260 -163 278 -177 86 -65 81 -179 -13 -261 -29 -26 -44 -32 -83 -32 -26 0 -67
9 -91 20 -24 11 -47 20 -51 20 -5 0 -20 -21 -35 -46 -31 -53 -33 -50 54 -91
143 -68 279 -4 367 171 26 52 34 81 34 120 0 67 -38 145 -94 191 -22 19 -159
109 -304 200 l-262 165 -34 -53z"/>
<path d="M10475 8001 c-29 -11 -50 -24 -49 -32 1 -8 31 -100 69 -205 l67 -192
59 20 c32 11 59 23 59 26 0 27 -134 402 -143 401 -7 0 -34 -9 -62 -18z"/>
<path d="M984 6117 c-3 -8 -3 -56 -2 -108 l3 -94 138 -3 137 -3 0 111 0 110
-135 0 c-103 0 -137 -3 -141 -13z"/>
<path d="M10807 6124 c-4 -4 -7 -54 -7 -111 l0 -104 138 3 137 3 0 105 0 105
-131 3 c-71 1 -133 -1 -137 -4z"/>
<path d="M10051 4150 c-77 -171 -141 -315 -141 -319 0 -8 735 -348 770 -357
11 -3 53 78 160 312 80 175 146 320 148 324 1 4 -20 17 -48 28 l-51 21 -24
-52 c-13 -28 -67 -146 -119 -262 -65 -144 -100 -209 -110 -207 -7 1 -66 27
-129 57 l-115 54 109 238 c60 130 111 244 114 253 6 18 -81 58 -95 44 -8 -8
-198 -415 -221 -471 -8 -22 -9 -22 -119 31 -61 30 -113 56 -116 58 -2 3 46
112 106 244 61 131 113 249 116 260 5 17 -2 24 -35 38 -23 9 -45 16 -50 16 -5
0 -72 -140 -150 -310z"/>
<path d="M1538 4327 c-146 -67 -285 -135 -307 -151 -48 -34 -97 -103 -112
-160 -35 -129 54 -384 169 -484 75 -66 173 -86 277 -58 39 10 510 215 562 244
8 5 5 22 -11 59 -12 29 -24 55 -27 58 -3 3 -127 -49 -275 -116 -280 -127 -330
-142 -397 -120 -78 26 -174 177 -184 292 -7 69 19 135 68 172 19 13 151 77
294 142 143 64 264 120 268 124 8 8 -42 122 -53 120 -3 0 -125 -56 -272 -122z"/>
<path d="M9758 3608 c-86 -114 -358 -498 -358 -506 0 -9 669 -499 694 -508 6
-2 28 18 48 45 l37 49 -155 112 c-85 62 -154 117 -154 122 0 5 65 100 145 211
l145 202 -38 32 c-20 18 -41 31 -47 30 -5 -2 -72 -90 -150 -195 -77 -105 -145
-196 -150 -201 -7 -7 -41 10 -107 54 -53 35 -99 69 -103 75 -3 6 29 59 72 118
44 59 116 157 160 218 l82 112 -44 31 c-24 17 -45 31 -48 31 -3 0 -16 -15 -29
-32z"/>
<path d="M1990 3224 c-173 -140 -323 -263 -334 -274 -18 -18 -18 -19 20 -64
21 -26 44 -44 52 -41 7 2 125 96 263 207 137 112 254 204 259 206 4 2 4 -14 0
-35 -5 -21 -45 -215 -90 -432 l-80 -394 41 -54 c23 -29 45 -56 49 -58 4 -2
158 120 343 272 l336 276 -40 49 c-23 26 -44 48 -47 48 -4 0 -124 -97 -267
-215 -143 -118 -261 -211 -263 -206 -2 5 35 197 82 426 47 228 86 422 86 430
0 13 -74 107 -89 112 -3 2 -148 -112 -321 -253z"/>
<path d="M2770 2363 c-140 -179 -260 -334 -267 -343 -10 -14 -4 -22 39 -55 51
-37 51 -37 67 -17 9 11 61 79 116 151 55 71 103 130 107 131 3 0 98 -72 209
-160 l202 -160 34 47 c18 26 30 50 26 53 -5 4 -97 76 -205 159 l-197 152 77
99 c42 54 81 99 85 99 4 1 100 -71 212 -159 113 -88 209 -160 213 -160 5 0 23
17 40 39 l31 39 -255 201 c-141 111 -261 204 -268 207 -7 3 -121 -135 -266
-323z"/>
<path d="M8853 2608 l-41 -43 281 -323 c155 -178 286 -323 290 -323 5 -1 110
88 234 198 124 109 233 205 243 213 18 14 17 17 -20 59 l-38 44 -197 -176
-196 -176 -251 284 c-138 157 -254 285 -257 285 -4 0 -25 -19 -48 -42z"/>
<path d="M8483 2317 c-23 -18 -42 -36 -43 -40 0 -8 143 -222 387 -579 l94
-137 49 32 c28 17 48 37 46 42 -10 24 -477 715 -484 714 -4 0 -26 -15 -49 -32z"/>
<path d="M3480 1819 c-195 -171 -356 -313 -357 -317 -1 -4 25 -19 59 -35 l61
-27 97 90 c54 49 105 90 112 90 8 0 98 -38 199 -85 l184 -85 -2 -138 -1 -139
64 -31 c35 -18 67 -32 69 -32 3 0 5 216 5 480 l0 480 -60 30 c-33 16 -63 30
-67 29 -4 0 -168 -140 -363 -310z m363 -111 l-8 -137 -142 69 c-79 38 -143 72
-142 77 0 4 67 68 147 141 l147 133 3 -73 c1 -40 -1 -135 -5 -210z"/>
<path d="M8068 2088 c-27 -11 -48 -24 -48 -28 0 -4 31 -77 69 -161 38 -85 66
-157 62 -161 -4 -5 -399 -180 -527 -234 -6 -3 -40 62 -79 151 -37 85 -71 155
-75 155 -9 0 -102 -39 -109 -45 -3 -3 334 -779 344 -793 5 -6 115 47 115 55 0
4 -34 88 -77 186 -45 106 -73 181 -67 186 11 11 508 231 521 231 5 0 46 -83
92 -185 46 -102 85 -185 86 -185 1 0 28 11 60 25 34 15 55 30 52 38 -42 109
-353 787 -361 786 -6 0 -32 -10 -58 -21z"/>
<path d="M4338 1428 c-76 -226 -136 -413 -134 -415 4 -4 618 -203 626 -203 3
0 12 25 21 55 16 54 16 55 -5 61 -11 3 -125 39 -252 80 l-231 74 113 353 c63
193 112 357 110 363 -2 5 -23 16 -46 23 -23 7 -47 14 -54 17 -7 3 -61 -145
-148 -408z"/>
<path d="M5260 1608 c0 -7 -16 -202 -34 -433 -18 -231 -32 -422 -30 -424 5 -5
546 -50 611 -51 l41 0 7 51 c4 27 5 52 4 53 -2 2 -118 13 -257 24 -140 11
-256 23 -259 26 -3 3 6 173 21 378 14 204 24 373 23 374 -1 1 -30 5 -64 9 -50
5 -63 4 -63 -7z"/>
<path d="M6650 1300 c-80 -11 -169 -22 -198 -25 l-53 -7 7 -61 c4 -34 7 -63 8
-64 3 -4 420 47 424 51 2 2 0 31 -4 65 -5 47 -10 61 -23 60 -9 -1 -81 -9 -161
-19z"/>
</g>
</svg>
